<svg id="svg" xmlns="http://www.w3.org/2000/svg" viewbox="62.900001525878906,28.360000610351562,308.4900207519531,213.74667358398438" style="height:213.74667358398438"><rect x="72.9" y="38.36" fill="none" stroke="#6190e8" stroke-width="2" width="85.28" height="174.58999999999997" d="M 72.9 38.36 h 85.28 v 174.58999999999997 h -85.28 Z"></rect><rect x="267.73" y="40.59" fill="none" stroke="#6190e8" stroke-width="2" width="83.59999999999997" height="172.85" d="M 267.73 40.59 h 83.59999999999997 v 172.85 h -83.59999999999997 Z"></rect><text font-family="inherit" font-size="14" fill="#6190e8" x="83.08" y="229.19">Stack</text><text font-family="inherit" font-size="14" fill="#6190e8" x="285.93" y="226.72">Heap</text><text font-family="inherit" font-size="14" fill="#6190e8" x="99.11" y="95.51">obj</text><path d="M 320.91,76.39 L 320.91,76.16 L 320.9,75.77 L 320.07,75.77 L 314.8,75.77 L 312.37,75.77 L 310.41,75.77 L 309.19,75.77 L 308.2,75.77 L 307.06,75.77 L 305.49,75.77 L 303.75,75.82 L 301.81,76.33 L 299.58,77.65 L 297.3,79.29 L 295.31,80.6 L 293.96,81.54 L 293.16,82.29 L 292.81,82.86 L 292.6,83.32 L 292.51,84.36 L 292.51,87.19 L 292.51,92.48 L 292.92,98.44 L 294.18,103.79 L 295.66,107.99 L 296.93,110.6 L 298.16,112.23 L 299.39,113.33 L 300.53,114.22 L 301.26,114.83 L 301.72,115.28 L 301.94,116.15 L 301.64,118.18 L 300.55,121.13 L 298.99,124.24 L 297.63,127.16 L 296.54,129.97 L 295.62,132.69 L 294.91,135.36 L 294.38,137.65 L 294.02,139.55 L 293.88,141.46 L 293.78,143.86 L 293.52,146.95 L 293.18,150.15 L 292.98,152.95 L 292.95,155.16 L 292.95,157.13 L 292.95,159.29 L 293.12,161.46 L 293.85,163.43 L 294.94,165.22 L 296.07,166.85 L 297.48,168.54 L 299.1,170.5 L 300.85,172.8 L 302.7,175.05 L 304.49,176.99 L 306.22,178.59 L 307.89,179.81 L 309.69,180.74 L 311.61,181.44 L 313.58,181.74 L 315.72,181.76 L 317.87,181.49 L 320.32,180.29 L 322.94,178.59 L 325.59,176.86 L 329.2,174.42 L 333.03,171.42 L 336.33,168.39 L 339.42,165.42 L 342.15,162.91 L 344.35,161.22 L 346.25,160.16 L 348.65,159.21 L 351.37,158.07 L 353.76,156.92 L 355.82,156.08 L 357.59,155.5 L 359.03,154.98 L 360.06,154.48 L 360.68,153.87 L 361.15,152.86 L 361.39,151.55 L 361.27,149.83 L 360,147.26 L 357.4,143.77 L 354.54,139.49 L 351.8,135.11 L 349.38,131.22 L 347.3,127.81 L 345.36,124.77 L 343.64,122.08 L 341.92,119.6 L 340.25,117.45 L 339.01,115.92 L 337.96,114.61 L 337.06,113.58 L 336.44,112.96 L 335.88,112.4 L 335.37,111.98 L 335.18,111.63 L 335.06,110.96 L 334.74,109.9 L 334.17,108.33 L 333.47,106.29 L 332.84,103.86 L 332.36,101.18 L 332.02,98.1 L 331.87,94.77 L 331.87,91.25 L 331.87,87.78 L 331.87,84.85 L 331.87,82.71 L 331.87,81.3 L 331.87,80.03 L 331.87,78.69 L 331.87,77.25 L 331.87,76 L 331.74,75.01 L 331.31,74.14 L 330.77,73.5 L 330.32,73 L 329.87,72.76 L 329.32,72.73 L 328.37,72.73 L 326.93,72.86 L 324.38,74.54" fill="none" stroke="#6190e8" stroke-width="2"></path><path d="M 304.79,93.27 L 304.86,93.2 L 305.14,93.29 L 306,93.29 L 307.83,93.29 L 311.04,93.29 L 314.51,93.29 L 317.25,93.29 L 319.71,93.29 L 321.84,93.29 L 323.41,93.29 L 324.35,93.29 L 324.82,93.29 L 325.25,93.29 L 325.58,93.29 L 325.68,93.23 L 325.78,93.11 L 325.83,93.03" fill="none" stroke="#6190e8" stroke-width="2"></path><path d="M 310.96,112.29 L 310.96,112.38 L 311.13,112.31 L 311.49,112.31 L 312.65,112.31 L 314.76,112.31 L 316.9,112.31 L 318.82,112.31 L 320.81,112.31 L 322.25,112.31 L 322.94,112.31 L 323.4,112.26 L 324.04,112.09 L 324.9,111.72 L 325.61,111.32 L 326.1,111.16 L 326.43,111.16 L 326.56,111.06 L 326.65,110.98 L 326.75,110.87 L 326.85,110.69 L 327.06,110.58 L 327.27,110.45" fill="none" stroke="#6190e8" stroke-width="2"></path><path d="M 311.61,138.65 L 311.77,138.48 L 312.73,138.48 L 315.25,138.48 L 318.51,138.48 L 321.87,138.48 L 324.76,138.48 L 327.1,138.48 L 328.85,138.48 L 329.76,138.48 L 330.18,138.48 L 330.43,138.48 L 331.14,138.48 L 332.31,138.48 L 333.52,138.48 L 334.29,138.48 L 334.73,138.48 L 335.12,138.48 L 335.28,138.4" fill="none" stroke="#6190e8" stroke-width="2"></path><path d="M 314.25,154.66 L 314.52,154.49 L 316.64,154.49 L 326.19,154.49 L 330.12,154.49 L 333.48,154.49 L 335.51,154.49 L 336.62,154.49" fill="none" stroke="#6190e8" stroke-width="2"></path><line x1="122.46" y1="91.97" x2="300.75" y2="104.5" fill="none" stroke="#6190e8" stroke-width="2" d="M 122.46 91.97 L 300.75 104.5"></line></svg>  